# xmcd
#
# Track frame offsets: 
#        150
#        16697
#        33603
#        45300
#        58511
#        72052
#        91253
#        104914
#        116657
#
# Disc length: 1827 seconds
#
# Revision: 0
# Processed by: cddbd v1.5.2PL0 Copyright (c) Steve Scherf et al.
# Submitted via: ExactAudioCopyFreeDBPlugin 1.0
#
DISCID=6f072109
DTITLE=Michael Holt - Zero Miles To Empty
DYEAR=2010
DGENRE=Blues
TTITLE0=The Things You Do
TTITLE1=Motorhead Baby
TTITLE2=Oilfield Blue
TTITLE3=When I'm Gone
TTITLE4=Keep On Lovin Me Baby
TTITLE5=Every Night And Every Day
TTITLE6=Got Me Wrong
TTITLE7=421-Pontiac
TTITLE8=To The River
EXTD=
EXTT0=
EXTT1=
EXTT2=
EXTT3=
EXTT4=
EXTT5=
EXTT6=
EXTT7=
EXTT8=
PLAYORDER=
